<?xml version="1.0" encoding="UTF-8" standalone="no"?>
<!-- Created with Inkscape (http://www.inkscape.org/) -->

<svg
   width="800"
   height="800"
   viewBox="0 0 800 800"
   version="1.1"
   id="svg1"
   inkscape:version="1.3.2 (091e20ef0f, 2023-11-25, custom)"
   sodipodi:docname="logo.svg"
   xmlns:inkscape="http://www.inkscape.org/namespaces/inkscape"
   xmlns:sodipodi="http://sodipodi.sourceforge.net/DTD/sodipodi-0.dtd"
   xmlns:xlink="http://www.w3.org/1999/xlink"
   xmlns="http://www.w3.org/2000/svg"
   xmlns:svg="http://www.w3.org/2000/svg">
  <sodipodi:namedview
     id="namedview1"
     pagecolor="#001a33"
     bordercolor="#000000"
     borderopacity="0.25"
     inkscape:showpageshadow="true"
     inkscape:pageopacity="0.0"
     inkscape:pagecheckerboard="0"
     inkscape:deskcolor="#d1d1d1"
     inkscape:document-units="px"
     borderlayer="false"
     showborder="false"
     inkscape:zoom="1"
     inkscape:cx="419.5"
     inkscape:cy="404"
     inkscape:window-width="1896"
     inkscape:window-height="1144"
     inkscape:window-x="10"
     inkscape:window-y="42"
     inkscape:window-maximized="1"
     inkscape:current-layer="layer1"
     showguides="false" />
  <defs
     id="defs1">
    <inkscape:path-effect
       effect="fillet_chamfer"
       id="path-effect150"
       is_visible="true"
       lpeversion="1"
       nodesatellites_param="F,0,0,1,0,0,0,1 @ F,0,0,1,0,0,0,1 @ F,0,0,1,0,0,0,1 @ F,0,0,1,0,0,0,1 @ F,0,0,1,0,5,0,1 @ F,0,0,1,0,5,0,1 @ F,0,0,1,0,0,0,1 @ F,0,0,1,0,0,0,1 @ F,0,0,1,0,0,0,1"
       radius="10"
       unit="px"
       method="auto"
       mode="F"
       chamfer_steps="1"
       flexible="false"
       use_knot_distance="true"
       apply_no_radius="true"
       apply_with_radius="true"
       only_selected="true"
       hide_knots="false" />
    <inkscape:path-effect
       effect="fillet_chamfer"
       id="path-effect148"
       is_visible="true"
       lpeversion="1"
       nodesatellites_param="F,0,0,1,0,0,0,1 @ F,0,0,1,0,0,0,1 @ F,0,1,1,0,30,0,1 @ F,0,0,1,0,0,0,1 @ F,0,0,1,0,0,0,1 @ F,0,1,1,0,30,0,1 @ F,0,0,1,0,0,0,1"
       radius="20"
       unit="px"
       method="auto"
       mode="F"
       chamfer_steps="1"
       flexible="false"
       use_knot_distance="true"
       apply_no_radius="true"
       apply_with_radius="true"
       only_selected="true"
       hide_knots="false" />
    <linearGradient
       id="linearGradient138"
       inkscape:collect="always">
      <stop
         style="stop-color:#2a4055;stop-opacity:1;"
         offset="0"
         id="stop139" />
      <stop
         style="stop-color:#2a4055;stop-opacity:0.71334225;"
         offset="1"
         id="stop140" />
    </linearGradient>
    <linearGradient
       id="linearGradient130"
       inkscape:swatch="gradient">
      <stop
         style="stop-color:#2a4055;stop-opacity:1;"
         offset="0"
         id="stop131" />
      <stop
         style="stop-color:#2a4055;stop-opacity:0;"
         offset="1"
         id="stop132" />
    </linearGradient>
    <linearGradient
       id="linearGradient123"
       inkscape:collect="always">
      <stop
         style="stop-color:#2a4055;stop-opacity:0;"
         offset="0"
         id="stop124" />
      <stop
         style="stop-color:#2a4055;stop-opacity:1;"
         offset="1"
         id="stop123" />
    </linearGradient>
    <inkscape:path-effect
       origin="400,300"
       starting_point="875.88845,300.38544"
       effect="copy_rotate"
       id="path-effect123"
       is_visible="true"
       lpeversion="1.2"
       lpesatellites=""
       method="normal"
       num_copies="6"
       starting_angle="0"
       rotation_angle="60"
       gap="-0.01"
       copies_to_360="true"
       mirror_copies="false"
       split_items="false"
       link_styles="false" />
    <inkscape:path-effect
       origin="400,300"
       starting_point="875.88845,300.38544"
       effect="copy_rotate"
       id="path-effect121"
       is_visible="true"
       lpeversion="1.2"
       lpesatellites=""
       method="normal"
       num_copies="6"
       starting_angle="0"
       rotation_angle="60"
       gap="-0.01"
       copies_to_360="true"
       mirror_copies="false"
       split_items="false"
       link_styles="false" />
    <inkscape:path-effect
       origin="400,300"
       starting_point="400,265.91507"
       effect="copy_rotate"
       id="path-effect120"
       is_visible="true"
       lpeversion="1.2"
       lpesatellites=""
       method="normal"
       num_copies="6"
       starting_angle="0"
       rotation_angle="60"
       gap="0"
       copies_to_360="true"
       mirror_copies="false"
       split_items="false"
       link_styles="false" />
    <inkscape:path-effect
       effect="fillet_chamfer"
       id="path-effect113"
       is_visible="true"
       lpeversion="1"
       nodesatellites_param="F,0,0,1,0,0,0,1 @ F,0,0,1,0,0,0,1 @ F,0,0,1,0,0,0,1 @ F,0,0,1,0,0,0,1 @ F,0,0,1,0,5,0,1 @ F,0,0,1,0,5,0,1 @ F,0,0,1,0,0,0,1 @ F,0,0,1,0,0,0,1 @ F,0,0,1,0,0,0,1"
       radius="10"
       unit="px"
       method="auto"
       mode="F"
       chamfer_steps="1"
       flexible="false"
       use_knot_distance="true"
       apply_no_radius="true"
       apply_with_radius="true"
       only_selected="true"
       hide_knots="false" />
    <inkscape:path-effect
       effect="fillet_chamfer"
       id="path-effect112"
       is_visible="true"
       lpeversion="1"
       nodesatellites_param="F,0,0,1,0,0,0,1 @ F,0,0,1,0,0,0,1 @ F,0,1,1,0,30,0,1 @ F,0,0,1,0,0,0,1 @ F,0,0,1,0,0,0,1 @ F,0,1,1,0,30,0,1 @ F,0,0,1,0,0,0,1"
       radius="20"
       unit="px"
       method="auto"
       mode="F"
       chamfer_steps="1"
       flexible="false"
       use_knot_distance="true"
       apply_no_radius="true"
       apply_with_radius="true"
       only_selected="true"
       hide_knots="false" />
    <radialGradient
       inkscape:collect="always"
       xlink:href="#linearGradient123"
       id="radialGradient124"
       cx="400"
       cy="300"
       fx="400"
       fy="300"
       r="158.08801"
       gradientTransform="matrix(1,0,0,1.1118718,0,-33.561525)"
       gradientUnits="userSpaceOnUse" />
    <radialGradient
       inkscape:collect="always"
       xlink:href="#linearGradient138"
       id="radialGradient140"
       cx="400"
       cy="300"
       fx="400"
       fy="300"
       r="34.08493"
       gradientUnits="userSpaceOnUse"
       gradientTransform="matrix(1.3310817,0,0,1.3310817,-130.87292,-97.818861)" />
    <filter
       inkscape:collect="always"
       style="color-interpolation-filters:sRGB"
       id="filter150"
       x="-0.21295077"
       y="-0.19457417"
       width="1.4259015"
       height="1.3891483">
      <feGaussianBlur
         inkscape:collect="always"
         stdDeviation="35.248044"
         id="feGaussianBlur150" />
    </filter>
  </defs>
  <g
     inkscape:label="Layer 1"
     inkscape:groupmode="layer"
     id="layer1">
    <rect
       style="fill:#2a4055;fill-opacity:1;stroke:#000000;stroke-width:0;stroke-miterlimit:4;stroke-dasharray:none;stroke-opacity:1"
       id="rect113"
       width="208.97983"
       height="26.187231"
       x="297.06985"
       y="627.36938"
       ry="13.093616" />
    <path
       id="path1"
       style="fill:#ff7500;fill-opacity:1;stroke:#ff7500;stroke-width:0;stroke-dasharray:none;stroke-opacity:1"
       d="m 400,100.875 c -109.97368,6e-5 -199.12494,89.15132 -199.125,199.125 0.10111,66.13908 32.95531,127.19126 86.46246,163.89107 13.65057,9.36274 27.75374,28.35049 30.01292,44.76429 l 3.1838,23.13157 a 5.7353342,5.7353342 41.081553 0 0 5.68177,4.9533 h 147.5681 a 5.7353342,5.7353342 138.91845 0 0 5.68177,-4.9533 l 3.1838,-23.13157 c 2.25918,-16.4138 16.36235,-35.40155 30.01292,-44.76429 C 566.16969,427.19126 599.02389,366.13908 599.125,300 599.12494,190.02632 509.97368,100.87506 400,100.875 Z"
       sodipodi:nodetypes="cccccccc"
       inkscape:original-d="m 400,100.875 c -109.97368,6e-5 -199.12494,89.15132 -199.125,199.125 0.11655,76.24187 43.75653,145.72409 112.38477,178.93555 l 7.95618,57.80468 h 157.5681 l 7.95618,-57.80468 C 555.36847,445.72409 599.00845,376.24187 599.125,300 599.12494,190.02632 509.97368,100.87506 400,100.875 Z"
       inkscape:path-effect="#path-effect112;#path-effect113"
       transform="matrix(1.3310817,0,0,1.3310817,-130.87293,-97.818862)" />
    <rect
       style="fill:#2a4055;fill-opacity:1;stroke:#000000;stroke-width:0;stroke-miterlimit:4;stroke-dasharray:none;stroke-opacity:1"
       id="rect115"
       width="208.97983"
       height="26.187231"
       x="297.06985"
       y="662.81171"
       ry="13.093616" />
    <rect
       style="fill:#2a4055;fill-opacity:1;stroke:#000000;stroke-width:0;stroke-miterlimit:4;stroke-dasharray:none;stroke-opacity:1"
       id="rect116"
       width="208.97983"
       height="26.187231"
       x="297.06985"
       y="698.25409"
       ry="13.093616" />
    <path
       id="rect117"
       style="fill:#2a4055;fill-opacity:1;stroke:#000000;stroke-width:0;stroke-miterlimit:4;stroke-dasharray:none;stroke-opacity:1"
       d="m 325.71799,733.69646 c 9.79404,20.15532 30.4342,33.98678 54.42877,33.98678 h 42.82599 c 23.99458,0 44.63474,-13.83146 54.42877,-33.98678 z" />
    <circle
       style="fill:url(#radialGradient140);fill-opacity:1;stroke:#000000;stroke-width:0;stroke-miterlimit:4;stroke-dasharray:none;stroke-opacity:1"
       id="path118"
       cx="401.55975"
       cy="301.50568"
       r="45.369827" />
    <path
       style="fill:#2a4055;fill-opacity:0.600107;stroke:#000000;stroke-width:0;stroke-miterlimit:4;stroke-dasharray:none;stroke-opacity:1"
       id="circle119"
       inkscape:path-effect="#path-effect120"
       sodipodi:type="arc"
       sodipodi:cx="400"
       sodipodi:cy="238.75842"
       sodipodi:rx="12.437592"
       sodipodi:ry="12.437592"
       d="m 412.43759,238.75842 c 0,6.86909 -5.5685,12.43759 -12.43759,12.43759 -6.86909,0 -12.43759,-5.5685 -12.43759,-12.43759 0,-6.86909 5.5685,-12.43759 12.43759,-12.43759 6.86909,0 12.43759,5.5685 12.43759,12.43759 z m -59.25556,19.84952 c 5.94881,3.43455 7.98702,11.04126 4.55248,16.99007 -3.43455,5.94881 -11.04126,7.98702 -16.99007,4.55247 -5.94881,-3.43454 -7.98702,-11.04126 -4.55247,-16.99006 3.43454,-5.94881 11.04126,-7.98702 16.99006,-4.55248 z m -12.43759,61.24158 c 5.94881,-3.43455 13.55552,-1.39634 16.99007,4.55247 3.43454,5.94881 1.39633,13.55552 -4.55248,16.99007 -5.9488,3.43454 -13.55552,1.39633 -16.99006,-4.55248 -3.43455,-5.9488 -1.39634,-13.55552 4.55247,-16.99006 z m 46.81797,41.39206 c 0,-6.86909 5.5685,-12.43759 12.43759,-12.43759 6.86909,0 12.43759,5.5685 12.43759,12.43759 0,6.86909 -5.5685,12.43759 -12.43759,12.43759 -6.86909,0 -12.43759,-5.5685 -12.43759,-12.43759 z m 59.25556,-19.84952 c -5.94881,-3.43455 -7.98702,-11.04126 -4.55248,-16.99007 3.43455,-5.94881 11.04126,-7.98702 16.99007,-4.55247 5.94881,3.43454 7.98702,11.04126 4.55247,16.99006 -3.43454,5.94881 -11.04126,7.98702 -16.99006,4.55248 z m 12.43759,-61.24158 c -5.94881,3.43455 -13.55552,1.39634 -16.99007,-4.55247 -3.43454,-5.94881 -1.39633,-13.55552 4.55248,-16.99007 5.9488,-3.43454 13.55552,-1.39633 16.99006,4.55248 3.43455,5.9488 1.39634,13.55552 -4.55247,16.99006 z"
       transform="matrix(1.3310817,0,0,1.3310817,-130.87293,-97.818862)" />
    <path
       style="fill:url(#radialGradient124);fill-opacity:1;stroke:#000000;stroke-width:0;stroke-miterlimit:4;stroke-dasharray:none;stroke-opacity:1"
       id="circle120"
       inkscape:path-effect="#path-effect121"
       sodipodi:type="arc"
       sodipodi:cx="400"
       sodipodi:cy="167.93854"
       sodipodi:rx="43.712128"
       sodipodi:ry="43.712128"
       d="m 443.71213,167.93854 c 0,24.14154 -19.57059,43.71213 -43.71213,43.71213 -24.14154,0 -43.71213,-19.57059 -43.71213,-43.71213 0,-24.14154 19.57059,-43.71213 43.71213,-43.71213 24.14154,0 43.71213,19.57059 43.71213,43.71213 z m -136.22465,28.17492 c 20.90719,12.07077 28.07052,38.80468 15.99975,59.71187 -12.07077,20.90719 -38.80469,28.07052 -59.71188,15.99975 -20.90718,-12.07077 -28.07052,-38.80469 -15.99974,-59.71188 12.07077,-20.90718 38.80468,-28.07051 59.71187,-15.99974 z m -43.71213,132.06146 c 20.90719,-12.07077 47.64111,-4.90744 59.71188,15.99975 12.07077,20.90719 4.90744,47.6411 -15.99975,59.71187 -20.90719,12.07077 -47.6411,4.90744 -59.71187,-15.99974 -12.07078,-20.90719 -4.90744,-47.64111 15.99974,-59.71188 z m 92.51252,103.88654 c 0,-24.14154 19.57059,-43.71213 43.71213,-43.71213 24.14154,0 43.71213,19.57059 43.71213,43.71213 0,24.14154 -19.57059,43.71213 -43.71213,43.71213 -24.14154,0 -43.71213,-19.57059 -43.71213,-43.71213 z m 136.22465,-28.17492 c -20.90719,-12.07077 -28.07052,-38.80468 -15.99975,-59.71187 12.07077,-20.90719 38.80469,-28.07052 59.71188,-15.99975 20.90718,12.07077 28.07052,38.80469 15.99974,59.71188 -12.07077,20.90718 -38.80468,28.07051 -59.71187,15.99974 z m 43.71213,-132.06146 c -20.90719,12.07077 -47.64111,4.90744 -59.71188,-15.99975 -12.07077,-20.90719 -4.90744,-47.6411 15.99975,-59.71187 20.90719,-12.07077 47.6411,-4.90744 59.71187,15.99974 12.07078,20.90719 4.90744,47.64111 -15.99974,59.71188 z"
       transform="matrix(1.3310817,0,0,1.3310817,-130.87293,-97.818862)" />
    <path
       id="path147-7"
       style="mix-blend-mode:normal;fill:#ff7500;fill-opacity:1;stroke:#ff7500;stroke-width:10;stroke-miterlimit:4;stroke-dasharray:none;stroke-opacity:1;filter:url(#filter150)"
       d="m 400,88.573301 c -116.18162,6.3e-5 -210.36617,94.182629 -210.36623,210.364269 0.10681,69.87257 34.8172,134.37155 91.3448,173.14304 14.42112,9.89126 29.31905,29.95067 31.70575,47.29103 l 3.36458,24.43741 a 6.059096,6.059096 0 0 0 6.0009,5.23289 h 155.89841 a 6.059096,6.059096 0 0 0 6.00289,-5.23289 l 3.36458,-24.43741 c 2.3867,-17.34036 17.28463,-37.39977 31.70577,-47.29103 56.5276,-38.77149 91.23802,-103.27047 91.34479,-173.14304 C 610.36613,182.75594 516.18162,88.573364 400,88.573301 Z m 0,8.221413 c 112.03257,6.1e-5 202.85305,90.820586 202.85316,202.853156 -0.103,67.37731 -33.57282,129.5722 -88.08171,166.95911 -13.90613,9.538 -28.27214,28.88266 -30.57362,45.60374 l -3.24518,23.56394 a 5.8427151,5.8427151 0 0 1 -5.78802,5.04586 H 324.83538 a 5.8427151,5.8427151 0 0 1 -5.78802,-5.04586 l -3.24519,-23.56394 c -2.30148,-16.72107 -16.66748,-36.06573 -30.57362,-45.60373 -54.5089,-37.38691 -87.9787,-99.5818 -88.08171,-166.95912 C 197.1469,187.6153 287.96743,96.794775 400,96.794714 Z"
       transform="matrix(1.3310817,0,0,1.3310817,-130.87294,-97.818862)" />
  </g>
</svg>
