<?xml version="1.0" encoding="UTF-8" standalone="no"?>
<!-- Created with Inkscape (http://www.inkscape.org/) -->

<svg
   width="3200"
   height="800"
   viewBox="0 0 3200 800"
   version="1.1"
   id="svg1"
   inkscape:version="1.4.2 (ebf0e940d0, 2025-05-08)"
   sodipodi:docname="flicksight-logo-name-outlines.svg"
   xmlns:inkscape="http://www.inkscape.org/namespaces/inkscape"
   xmlns:sodipodi="http://sodipodi.sourceforge.net/DTD/sodipodi-0.dtd"
   xmlns:xlink="http://www.w3.org/1999/xlink"
   xmlns="http://www.w3.org/2000/svg"
   xmlns:svg="http://www.w3.org/2000/svg"
   xmlns:rdf="http://www.w3.org/1999/02/22-rdf-syntax-ns#"
   xmlns:cc="http://creativecommons.org/ns#"
   xmlns:dc="http://purl.org/dc/elements/1.1/">
  <title
     id="title1">Flicksight</title>
  <sodipodi:namedview
     id="namedview1"
     pagecolor="#001a33"
     bordercolor="#000000"
     borderopacity="0.25"
     inkscape:showpageshadow="true"
     inkscape:pageopacity="0.0"
     inkscape:pagecheckerboard="0"
     inkscape:deskcolor="#d1d1d1"
     inkscape:document-units="px"
     borderlayer="false"
     showborder="false"
     inkscape:zoom="0.25"
     inkscape:cx="1424"
     inkscape:cy="198"
     inkscape:window-width="1896"
     inkscape:window-height="1144"
     inkscape:window-x="10"
     inkscape:window-y="42"
     inkscape:window-maximized="1"
     inkscape:current-layer="layer1"
     showguides="false"
     showgrid="false" />
  <defs
     id="defs1">
    <rect
       x="921.27258"
       y="138.64349"
       width="1199.9792"
       height="402.93045"
       id="rect4" />
    <rect
       x="627.00378"
       y="915.86682"
       width="1129.0188"
       height="376.1449"
       id="rect3" />
    <rect
       x="1331.6659"
       y="368.55737"
       width="162.09607"
       height="94.668945"
       id="rect2" />
    <rect
       x="712.40765"
       y="51.403381"
       width="1625.1404"
       height="711.16742"
       id="rect1" />
    <inkscape:path-effect
       effect="fillet_chamfer"
       id="path-effect150"
       is_visible="true"
       lpeversion="1"
       nodesatellites_param="F,0,0,1,0,0,0,1 @ F,0,0,1,0,0,0,1 @ F,0,0,1,0,0,0,1 @ F,0,0,1,0,0,0,1 @ F,0,0,1,0,5,0,1 @ F,0,0,1,0,5,0,1 @ F,0,0,1,0,0,0,1 @ F,0,0,1,0,0,0,1 @ F,0,0,1,0,0,0,1"
       radius="10"
       unit="px"
       method="auto"
       mode="F"
       chamfer_steps="1"
       flexible="false"
       use_knot_distance="true"
       apply_no_radius="true"
       apply_with_radius="true"
       only_selected="true"
       hide_knots="false" />
    <inkscape:path-effect
       effect="fillet_chamfer"
       id="path-effect148"
       is_visible="true"
       lpeversion="1"
       nodesatellites_param="F,0,0,1,0,0,0,1 @ F,0,0,1,0,0,0,1 @ F,0,1,1,0,30,0,1 @ F,0,0,1,0,0,0,1 @ F,0,0,1,0,0,0,1 @ F,0,1,1,0,30,0,1 @ F,0,0,1,0,0,0,1"
       radius="20"
       unit="px"
       method="auto"
       mode="F"
       chamfer_steps="1"
       flexible="false"
       use_knot_distance="true"
       apply_no_radius="true"
       apply_with_radius="true"
       only_selected="true"
       hide_knots="false" />
    <linearGradient
       id="linearGradient138"
       inkscape:collect="always">
      <stop
         style="stop-color:#2a4055;stop-opacity:1;"
         offset="0"
         id="stop139" />
      <stop
         style="stop-color:#2a4055;stop-opacity:0.71334225;"
         offset="1"
         id="stop140" />
    </linearGradient>
    <linearGradient
       id="linearGradient130"
       inkscape:swatch="gradient">
      <stop
         style="stop-color:#2a4055;stop-opacity:1;"
         offset="0"
         id="stop131" />
      <stop
         style="stop-color:#2a4055;stop-opacity:0;"
         offset="1"
         id="stop132" />
    </linearGradient>
    <linearGradient
       id="linearGradient123"
       inkscape:collect="always">
      <stop
         style="stop-color:#2a4055;stop-opacity:0;"
         offset="0"
         id="stop124" />
      <stop
         style="stop-color:#2a4055;stop-opacity:1;"
         offset="1"
         id="stop123" />
    </linearGradient>
    <inkscape:path-effect
       origin="400,300"
       starting_point="875.88845,300.38544"
       effect="copy_rotate"
       id="path-effect123"
       is_visible="true"
       lpeversion="1.2"
       lpesatellites=""
       method="normal"
       num_copies="6"
       starting_angle="0"
       rotation_angle="60"
       gap="-0.01"
       copies_to_360="true"
       mirror_copies="false"
       split_items="false"
       link_styles="false" />
    <inkscape:path-effect
       origin="400,300"
       starting_point="500,300"
       effect="copy_rotate"
       id="path-effect121"
       is_visible="true"
       lpeversion="1.2"
       lpesatellites=""
       method="normal"
       num_copies="6"
       starting_angle="0"
       rotation_angle="60"
       gap="-0.01"
       copies_to_360="true"
       mirror_copies="false"
       split_items="false"
       link_styles="false" />
    <inkscape:path-effect
       origin="400,300"
       starting_point="500,300"
       effect="copy_rotate"
       id="path-effect120"
       is_visible="true"
       lpeversion="1.2"
       lpesatellites=""
       method="normal"
       num_copies="6"
       starting_angle="0"
       rotation_angle="60"
       gap="0"
       copies_to_360="true"
       mirror_copies="false"
       split_items="false"
       link_styles="false" />
    <inkscape:path-effect
       effect="fillet_chamfer"
       id="path-effect113"
       is_visible="true"
       lpeversion="1"
       nodesatellites_param="F,0,0,1,0,0,0,1 @ F,0,0,1,0,0,0,1 @ F,0,0,1,0,0,0,1 @ F,0,0,1,0,0,0,1 @ F,0,0,1,0,5,0,1 @ F,0,0,1,0,5,0,1 @ F,0,0,1,0,0,0,1 @ F,0,0,1,0,0,0,1 @ F,0,0,1,0,0,0,1"
       radius="10"
       unit="px"
       method="auto"
       mode="F"
       chamfer_steps="1"
       flexible="false"
       use_knot_distance="true"
       apply_no_radius="true"
       apply_with_radius="true"
       only_selected="true"
       hide_knots="false" />
    <inkscape:path-effect
       effect="fillet_chamfer"
       id="path-effect112"
       is_visible="true"
       lpeversion="1"
       nodesatellites_param="F,0,0,1,0,0,0,1 @ F,0,0,1,0,0,0,1 @ F,0,1,1,0,30,0,1 @ F,0,0,1,0,0,0,1 @ F,0,0,1,0,0,0,1 @ F,0,1,1,0,30,0,1 @ F,0,0,1,0,0,0,1"
       radius="20"
       unit="px"
       method="auto"
       mode="F"
       chamfer_steps="1"
       flexible="false"
       use_knot_distance="true"
       apply_no_radius="true"
       apply_with_radius="true"
       only_selected="true"
       hide_knots="false" />
    <radialGradient
       inkscape:collect="always"
       xlink:href="#linearGradient123"
       id="radialGradient124"
       cx="400"
       cy="300"
       fx="400"
       fy="300"
       r="158.08801"
       gradientTransform="matrix(1,0,0,1.1118718,0,-33.561525)"
       gradientUnits="userSpaceOnUse" />
    <radialGradient
       inkscape:collect="always"
       xlink:href="#linearGradient138"
       id="radialGradient140"
       cx="400"
       cy="300"
       fx="400"
       fy="300"
       r="34.08493"
       gradientUnits="userSpaceOnUse"
       gradientTransform="matrix(1.1534192,0,0,1.1534192,-106.0436,-3.7957871)" />
    <filter
       inkscape:collect="always"
       style="color-interpolation-filters:sRGB"
       id="filter150"
       x="-0.28572345"
       y="-0.26106693"
       width="1.5714469"
       height="1.5221339">
      <feGaussianBlur
         inkscape:collect="always"
         stdDeviation="44.610806"
         id="feGaussianBlur150" />
    </filter>
    <filter
       inkscape:collect="always"
       style="color-interpolation-filters:sRGB"
       id="filter2"
       x="-0.050644056"
       y="-0.23061504"
       width="1.1012881"
       height="1.4612301">
      <feGaussianBlur
         inkscape:collect="always"
         stdDeviation="48.524972"
         id="feGaussianBlur2" />
    </filter>
  </defs>
  <g
     inkscape:label="Layer 1"
     inkscape:groupmode="layer"
     id="layer1">
    <rect
       style="fill:#2a4055;fill-opacity:1;stroke:#000000;stroke-width:0;stroke-miterlimit:4;stroke-dasharray:none;stroke-opacity:1"
       id="rect113"
       width="181.08684"
       height="22.691965"
       x="264.78073"
       y="624.59998"
       ry="11.345983" />
    <path
       id="path1"
       style="fill:#ff7500;fill-opacity:1;stroke:#ff7500;stroke-width:0;stroke-dasharray:none;stroke-opacity:1"
       d="m 400,100.875 c -109.97368,6e-5 -199.12494,89.15132 -199.125,199.125 0.10111,66.13908 32.95531,127.19126 86.46246,163.89107 13.65057,9.36274 27.75374,28.35049 30.01292,44.76429 l 3.1838,23.13157 a 5.7353342,5.7353342 41.081553 0 0 5.68177,4.9533 h 147.5681 a 5.7353342,5.7353342 138.91845 0 0 5.68177,-4.9533 l 3.1838,-23.13157 c 2.25918,-16.4138 16.36235,-35.40155 30.01292,-44.76429 C 566.16969,427.19126 599.02389,366.13908 599.125,300 599.12494,190.02632 509.97368,100.87506 400,100.875 Z"
       sodipodi:nodetypes="cccccccc"
       transform="matrix(1.1534193,0,0,1.1534193,-106.04361,-3.7957876)"
       inkscape:original-d="m 400,100.875 c -109.97368,6e-5 -199.12494,89.15132 -199.125,199.125 0.11655,76.24187 43.75653,145.72409 112.38477,178.93555 l 7.95618,57.80468 h 157.5681 l 7.95618,-57.80468 C 555.36847,445.72409 599.00845,376.24187 599.125,300 599.12494,190.02632 509.97368,100.87506 400,100.875 Z"
       inkscape:path-effect="#path-effect112;#path-effect113" />
    <rect
       style="fill:#2a4055;fill-opacity:1;stroke:#000000;stroke-width:0;stroke-miterlimit:4;stroke-dasharray:none;stroke-opacity:1"
       id="rect115"
       width="181.08684"
       height="22.691965"
       x="264.78073"
       y="655.31183"
       ry="11.345983" />
    <rect
       style="fill:#2a4055;fill-opacity:1;stroke:#000000;stroke-width:0;stroke-miterlimit:4;stroke-dasharray:none;stroke-opacity:1"
       id="rect116"
       width="181.08684"
       height="22.691965"
       x="264.78073"
       y="686.0235"
       ry="11.345983" />
    <path
       id="rect117"
       style="fill:#2a4055;fill-opacity:1;stroke:#000000;stroke-width:0;stroke-miterlimit:4;stroke-dasharray:none;stroke-opacity:1"
       d="m 289.60512,716.73534 c 8.4868,17.46515 26.37208,29.4505 47.16404,29.4505 h 37.10991 c 20.79198,0 38.67723,-11.98535 47.16404,-29.4505 z" />
    <circle
       style="fill:url(#radialGradient140);fill-opacity:1;stroke:#000000;stroke-width:0;stroke-miterlimit:4;stroke-dasharray:none;stroke-opacity:1"
       id="path118"
       cx="355.32413"
       cy="342.23001"
       r="39.314213" />
    <path
       style="fill:#2a4055;fill-opacity:0.600107;stroke:#000000;stroke-width:0;stroke-miterlimit:4;stroke-dasharray:none;stroke-opacity:1"
       id="circle119"
       sodipodi:type="arc"
       sodipodi:cx="400"
       sodipodi:cy="238.75842"
       sodipodi:rx="12.437592"
       sodipodi:ry="12.437592"
       d="m 412.43759,238.75842 c 0,6.86909 -5.5685,12.43759 -12.43759,12.43759 -6.86909,0 -12.43759,-5.5685 -12.43759,-12.43759 0,-6.86909 5.5685,-12.43759 12.43759,-12.43759 6.86909,0 12.43759,5.5685 12.43759,12.43759 z m -59.25556,19.84952 c 5.94881,3.43455 7.98702,11.04126 4.55248,16.99007 -3.43455,5.94881 -11.04126,7.98702 -16.99007,4.55247 -5.94881,-3.43454 -7.98702,-11.04126 -4.55247,-16.99006 3.43454,-5.94881 11.04126,-7.98702 16.99006,-4.55248 z m -12.43759,61.24158 c 5.94881,-3.43455 13.55552,-1.39634 16.99007,4.55247 3.43454,5.94881 1.39633,13.55552 -4.55248,16.99007 -5.9488,3.43454 -13.55552,1.39633 -16.99006,-4.55248 -3.43455,-5.9488 -1.39634,-13.55552 4.55247,-16.99006 z m 46.81797,41.39206 c 0,-6.86909 5.5685,-12.43759 12.43759,-12.43759 6.86909,0 12.43759,5.5685 12.43759,12.43759 0,6.86909 -5.5685,12.43759 -12.43759,12.43759 -6.86909,0 -12.43759,-5.5685 -12.43759,-12.43759 z m 59.25556,-19.84952 c -5.94881,-3.43455 -7.98702,-11.04126 -4.55248,-16.99007 3.43455,-5.94881 11.04126,-7.98702 16.99007,-4.55247 5.94881,3.43454 7.98702,11.04126 4.55247,16.99006 -3.43454,5.94881 -11.04126,7.98702 -16.99006,4.55248 z m 12.43759,-61.24158 c -5.94881,3.43455 -13.55552,1.39634 -16.99007,-4.55247 -3.43454,-5.94881 -1.39633,-13.55552 4.55248,-16.99007 5.9488,-3.43454 13.55552,-1.39633 16.99006,4.55248 3.43455,5.9488 1.39634,13.55552 -4.55247,16.99006 z"
       transform="matrix(1.1534193,0,0,1.1534193,-106.04361,-3.7957876)"
       inkscape:path-effect="#path-effect120" />
    <path
       style="fill:url(#radialGradient124);fill-opacity:1;stroke:#000000;stroke-width:0;stroke-miterlimit:4;stroke-dasharray:none;stroke-opacity:1"
       id="circle120"
       sodipodi:type="arc"
       sodipodi:cx="400"
       sodipodi:cy="167.93854"
       sodipodi:rx="43.712128"
       sodipodi:ry="43.712128"
       d="m 443.71213,167.93854 c 0,24.14154 -19.57059,43.71213 -43.71213,43.71213 -24.14154,0 -43.71213,-19.57059 -43.71213,-43.71213 0,-24.14154 19.57059,-43.71213 43.71213,-43.71213 24.14154,0 43.71213,19.57059 43.71213,43.71213 z m -136.22465,28.17492 c 20.90719,12.07077 28.07052,38.80468 15.99975,59.71187 -12.07077,20.90719 -38.80469,28.07052 -59.71188,15.99975 -20.90718,-12.07077 -28.07052,-38.80469 -15.99974,-59.71188 12.07077,-20.90718 38.80468,-28.07051 59.71187,-15.99974 z m -43.71213,132.06146 c 20.90719,-12.07077 47.64111,-4.90744 59.71188,15.99975 12.07077,20.90719 4.90744,47.6411 -15.99975,59.71187 -20.90719,12.07077 -47.6411,4.90744 -59.71187,-15.99974 -12.07078,-20.90719 -4.90744,-47.64111 15.99974,-59.71188 z m 92.51252,103.88654 c 0,-24.14154 19.57059,-43.71213 43.71213,-43.71213 24.14154,0 43.71213,19.57059 43.71213,43.71213 0,24.14154 -19.57059,43.71213 -43.71213,43.71213 -24.14154,0 -43.71213,-19.57059 -43.71213,-43.71213 z m 136.22465,-28.17492 c -20.90719,-12.07077 -28.07052,-38.80468 -15.99975,-59.71187 12.07077,-20.90719 38.80469,-28.07052 59.71188,-15.99975 20.90718,12.07077 28.07052,38.80469 15.99974,59.71188 -12.07077,20.90718 -38.80468,28.07051 -59.71187,15.99974 z m 43.71213,-132.06146 c -20.90719,12.07077 -47.64111,4.90744 -59.71188,-15.99975 -12.07077,-20.90719 -4.90744,-47.6411 15.99975,-59.71187 20.90719,-12.07077 47.6411,-4.90744 59.71187,15.99974 12.07078,20.90719 4.90744,47.64111 -15.99974,59.71188 z"
       transform="matrix(1.1534193,0,0,1.1534193,-106.04361,-3.7957876)"
       inkscape:path-effect="#path-effect121" />
    <path
       id="path147-7"
       style="mix-blend-mode:normal;fill:#ff7500;fill-opacity:1;stroke:#ff7500;stroke-width:26.2944;stroke-miterlimit:4;stroke-dasharray:none;stroke-opacity:1;filter:url(#filter150)"
       d="m 400,88.573301 c -116.18162,6.3e-5 -210.36617,94.182629 -210.36623,210.364269 0.10681,69.87257 34.8172,134.37155 91.3448,173.14304 14.42112,9.89126 29.31905,29.95067 31.70575,47.29103 l 3.36458,24.43741 a 6.059096,6.059096 0 0 0 6.0009,5.23289 h 155.89841 a 6.059096,6.059096 0 0 0 6.00289,-5.23289 l 3.36458,-24.43741 c 2.3867,-17.34036 17.28463,-37.39977 31.70577,-47.29103 56.5276,-38.77149 91.23802,-103.27047 91.34479,-173.14304 C 610.36613,182.75594 516.18162,88.573364 400,88.573301 Z m 0,8.221413 c 112.03257,6.1e-5 202.85305,90.820586 202.85316,202.853156 -0.103,67.37731 -33.57282,129.5722 -88.08171,166.95911 -13.90613,9.538 -28.27214,28.88266 -30.57362,45.60374 l -3.24518,23.56394 a 5.8427151,5.8427151 0 0 1 -5.78802,5.04586 H 324.83538 a 5.8427151,5.8427151 0 0 1 -5.78802,-5.04586 l -3.24519,-23.56394 c -2.30148,-16.72107 -16.66748,-36.06573 -30.57362,-45.60373 -54.5089,-37.38691 -87.9787,-99.5818 -88.08171,-166.95912 C 197.1469,187.6153 287.96743,96.794775 400,96.794714 Z"
       transform="matrix(1.1534193,0,0,1.1534193,-106.04362,-3.7957876)" />
    <path
       d="m 725.33405,209.4761 h 238.34318 v 36.66819 h -197.3611 v 135.88797 h 171.47768 v 36.66818 H 766.31613 v 168.24225 h -40.98208 z m 297.65935,-7.54933 h 39.9036 v 385.01592 h -39.9036 z m 120.7889,55.00228 v -23.72647 l 16.1772,-16.17714 h 23.7264 l 16.1772,16.17714 v 23.72647 l -16.1772,16.17714 h -23.7264 z m 8.0886,61.47313 h 39.9036 v 268.54051 h -39.9036 z M 1272.66,537.33279 V 368.01207 l 49.6099,-49.60989 h 129.4171 l 49.6099,49.60989 v 32.89352 h -39.9036 v -20.49105 l -26.9619,-26.42266 h -94.9059 l -26.9619,26.42266 v 144.51578 l 26.9619,26.42266 h 94.9059 l 26.9619,-26.42266 v -20.49104 h 39.9036 v 32.89351 l -49.6099,49.6099 h -129.4171 z m 293.3457,-335.40602 h 39.9036 V 429.4852 h 63.0908 l 78.7288,-111.08302 h 44.2175 l -90.592,129.41711 95.9843,139.1234 h -44.2175 l -84.1211,-121.86778 h -63.0908 v 121.86778 h -39.9036 z m 263.6872,340.7984 v -33.43275 h 39.9036 v 22.10876 l 21.5695,21.03028 h 99.2198 l 21.5696,-21.03028 v -41.52133 l -21.5696,-21.56952 h -115.9361 l -42.5998,-42.5998 v -63.09084 l 44.2175,-44.21751 h 126.1817 l 44.2175,44.21751 v 33.43275 h -39.9036 v -22.10875 l -21.5695,-21.03028 h -91.6705 l -21.5695,21.03028 v 39.36437 l 21.5695,21.56952 h 114.3184 l 44.2176,44.21751 v 63.63008 l -44.2176,44.21752 h -133.731 z m 286.8743,-285.79612 v -23.72647 l 16.1771,-16.17714 h 23.7265 l 16.1771,16.17714 v 23.72647 l -16.1771,16.17714 h -23.7265 z m 8.0885,61.47313 h 39.9036 v 268.54051 h -39.9036 z m 358.0537,0 v 337.02373 l -49.0707,49.07066 H 2300.447 l -41.5214,-41.52133 v -32.89351 h 39.9037 v 19.9518 l 18.8733,18.87333 h 98.1413 l 26.9619,-26.42266 V 542.18594 l -49.6099,44.75675 h -98.1413 l -49.6099,-49.6099 V 368.01207 l 49.6099,-49.60989 h 101.916 l 46.9137,46.9137 v -46.9137 z m -39.9036,92.20969 -56.62,-56.61999 h -73.8756 l -26.9619,26.42266 v 144.51578 l 26.9619,26.42266 h 74.4148 l 56.0808,-52.30608 z m 120.7893,-208.6851 h 39.9036 v 172.55616 l 56.0808,-56.08075 h 83.5819 l 49.6099,49.60989 v 218.93062 h -39.9036 V 380.41454 l -26.9619,-26.42266 h -55.5415 l -66.8656,66.86551 v 166.0853 h -39.9036 z m 326.2386,335.40602 V 353.45264 h -48.5314 v -35.05046 h 49.6099 v -87.35656 h 38.8252 v 87.35656 h 84.1211 v 35.05046 h -84.1211 v 171.47768 l 26.9618,26.9619 h 57.1593 v 35.05047 h -74.4149 z"
       id="text1"
       style="font-size:539.238px;font-family:'Chakra Petch';-inkscape-font-specification:'Chakra Petch, Normal';fill:#ff7500;stroke:#ff8a00;stroke-width:0"
       aria-label="Flicksight" />
    <path
       d="m 904.83264,172.35339 h 265.19996 v 40.8 H 950.43264 v 151.2 h 190.79996 v 40.8 H 950.43264 v 187.2 h -45.6 z m 331.20006,-8.4 h 44.4 v 428.4 h -44.4 z m 134.3995,61.2 v -26.4 l 18,-18 h 26.4 l 18,18 v 26.4 l -18,18 h -26.4 z m 9,68.4 h 44.4 v 298.8 h -44.4 z m 134.3997,243.6 v -188.4 l 55.2,-55.2 h 144 l 55.2,55.2 v 36.6 h -44.4 v -22.8 l -30,-29.4 h -105.6 l -30,29.4 v 160.8 l 30,29.4 h 105.6 l 30,-29.4 v -22.8 h 44.4 v 36.6 l -55.2,55.2 h -144 z m 326.4002,-373.2 h 44.4 v 253.2 h 70.2 l 87.6,-123.6 h 49.2 l -100.8,144 106.8,154.8 h -49.2 l -93.6,-135.6 h -70.2 v 135.6 h -44.4 z m 293.4,379.2 v -37.2 h 44.4 v 24.6 l 24,23.4 h 110.4 l 24,-23.4 v -46.2 l -24,-24 h -129 l -47.4,-47.4 v -70.2 l 49.2,-49.2 h 140.4 l 49.2,49.2 v 37.2 h -44.4 v -24.6 l -24,-23.4 h -102 l -24,23.4 v 43.8 l 24,24 h 127.2 l 49.2,49.2 v 70.8 l -49.2,49.2 h -148.8 z m 319.1994,-318 v -26.4 l 18,-18 h 26.4 l 18,18 v 26.4 l -18,18 h -26.4 z m 9,68.4 h 44.4 v 298.8 h -44.4 z m 398.3997,0 v 375 l -54.6,54.6 h -148.2 l -46.2,-46.2 v -36.6 h 44.4 v 22.2 l 21,21 h 109.2 l 30,-29.4 v -111.6 l -55.2,49.8 h -109.2 l -55.2,-55.2 v -188.4 l 55.2,-55.2 h 113.4 l 52.2,52.2 v -52.2 z m -44.4,102.6 -63,-63 h -82.2 l -30,29.4 v 160.8 l 30,29.4 h 82.8 l 62.4,-58.2 z m 134.3999,-232.2 h 44.4 v 192 l 62.4,-62.4 h 93 l 55.2,55.2 v 243.6 h -44.4 v -229.8 l -30,-29.4 h -61.8 l -74.4,74.4 v 184.8 h -44.4 z m 362.9997,373.2 v -204.6 h -54 v -39 h 55.2 v -97.2 h 43.2 v 97.2 h 93.6 v 39 h -93.6 v 190.8 l 30,30 h 63.6 v 39 h -82.8 z"
       id="text2"
       style="font-size:600px;font-family:'Chakra Petch';-inkscape-font-specification:'Chakra Petch, Normal';fill:none;stroke:#ff7500;stroke-width:25;filter:url(#filter2)"
       transform="matrix(0.89872889,0,0,0.89872889,-87.86531,54.577398)"
       aria-label="Flicksight" />
  </g>
  <metadata
     id="metadata1">
    <rdf:RDF>
      <cc:Work
         rdf:about="">
        <dc:title>Flicksight</dc:title>
      </cc:Work>
    </rdf:RDF>
  </metadata>
</svg>
